<?xml version="1.0" encoding="UTF-8" standalone="no"?> <svg width="64" height="64" viewBox="0 0 64 64" fill="none" xmlns="http://www.w3.org/2000/svg">
<path d="M27.81 15.87C27.7855 15.8105 27.7554 15.7536 27.72 15.7C27.6637 15.5856 27.5773 15.4888 27.47 15.42C27.4231 15.3822 27.3729 15.3487 27.32 15.32C27.2588 15.2937 27.1952 15.2736 27.13 15.26C27.0867 15.257 27.0433 15.257 27 15.26C25.35 15.08 24.06 14.83 22.71 14.57C20.7298 14.1591 18.7259 13.8719 16.71 13.71H16.63H16.49C16.3558 13.7121 16.226 13.7577 16.12 13.84C15.9976 13.8976 15.8962 13.992 15.83 14.11C15.7922 14.1568 15.7587 14.2071 15.73 14.26C15.7031 14.3244 15.683 14.3914 15.67 14.46C15.666 14.5099 15.666 14.56 15.67 14.61C15.67 14.61 15.67 14.61 15.67 14.61V42.5C15.67 44.0913 16.3021 45.6174 17.4273 46.7426C18.5526 47.8678 20.0787 48.5 21.67 48.5H21.93C23.5213 48.5 25.0474 47.8678 26.1726 46.7426C27.2978 45.6174 27.93 44.0913 27.93 42.5V16.2C27.9335 16.1534 27.9335 16.1066 27.93 16.06C27.8973 15.9923 27.857 15.9286 27.81 15.87V15.87Z" fill="url(#paint0_linear)"/>
<path d="M49.85 16.0599C49.8561 15.9967 49.8561 15.9331 49.85 15.8699C49.8256 15.8105 49.7954 15.7536 49.76 15.6999C49.7037 15.5856 49.6173 15.4888 49.51 15.4199C49.4631 15.3821 49.4129 15.3487 49.36 15.3199C49.2989 15.2937 49.2352 15.2736 49.17 15.2599C49.1268 15.2569 49.0833 15.2569 49.04 15.2599C47.39 15.0799 46.1 14.8299 44.75 14.5699C42.7698 14.1591 40.7659 13.8718 38.75 13.7099H38.67H38.53C38.4569 13.7018 38.3831 13.7018 38.31 13.7099L38.17 13.7899C38.0507 13.8495 37.9476 13.937 37.8692 14.0449C37.7909 14.1528 37.7397 14.278 37.72 14.4099C37.716 14.4598 37.716 14.51 37.72 14.5599C37.72 14.5599 37.72 14.5599 37.72 14.5599V42.4999C37.72 44.0912 38.3522 45.6174 39.4774 46.7426C40.6026 47.8678 42.1287 48.4999 43.72 48.4999H43.98C45.5713 48.4999 47.0975 47.8678 48.2227 46.7426C49.3479 45.6174 49.98 44.0912 49.98 42.4999V16.1999C49.9416 16.149 49.898 16.1021 49.85 16.0599V16.0599Z" fill="url(#paint1_linear)"/>
<path d="M29 7.5H14.5C14.2348 7.5 13.9804 7.60536 13.7929 7.79289C13.6054 7.98043 13.5 8.23478 13.5 8.5C13.5 8.76522 13.6054 9.01957 13.7929 9.20711C13.9804 9.39464 14.2348 9.5 14.5 9.5H15.62V42.5C15.62 44.0913 16.2521 45.6174 17.3774 46.7426C18.5026 47.8679 20.0287 48.5 21.62 48.5H21.88C23.4713 48.5 24.9974 47.8679 26.1226 46.7426C27.2479 45.6174 27.88 44.0913 27.88 42.5V9.5H29C29.2652 9.5 29.5196 9.39464 29.7071 9.20711C29.8946 9.01957 30 8.76522 30 8.5C30 8.23478 29.8946 7.98043 29.7071 7.79289C29.5196 7.60536 29.2652 7.5 29 7.5ZM25.88 42.5C25.88 43.5609 25.4586 44.5783 24.7084 45.3284C23.9583 46.0786 22.9409 46.5 21.88 46.5H21.62C20.5591 46.5 19.5417 46.0786 18.7916 45.3284C18.0414 44.5783 17.62 43.5609 17.62 42.5V9.5H25.88V42.5Z" fill="url(#paint2_linear)"/>
<path d="M51 7.5H36.5C36.2348 7.5 35.9804 7.60536 35.7929 7.79289C35.6054 7.98043 35.5 8.23478 35.5 8.5C35.5 8.76522 35.6054 9.01957 35.7929 9.20711C35.9804 9.39464 36.2348 9.5 36.5 9.5H37.62V42.5C37.62 44.0913 38.2521 45.6174 39.3774 46.7426C40.5026 47.8679 42.0287 48.5 43.62 48.5H43.88C45.4713 48.5 46.9974 47.8679 48.1226 46.7426C49.2479 45.6174 49.88 44.0913 49.88 42.5V9.5H51C51.2652 9.5 51.5196 9.39464 51.7071 9.20711C51.8946 9.01957 52 8.76522 52 8.5C52 8.23478 51.8946 7.98043 51.7071 7.79289C51.5196 7.60536 51.2652 7.5 51 7.5ZM47.88 42.5C47.88 43.5609 47.4586 44.5783 46.7084 45.3284C45.9583 46.0786 44.9409 46.5 43.88 46.5H43.62C42.5591 46.5 41.5417 46.0786 40.7916 45.3284C40.0414 44.5783 39.62 43.5609 39.62 42.5V9.5H47.88V42.5Z" fill="url(#paint3_linear)"/>
<path d="M60 50.5H9V26.5H55C55.2652 26.5 55.5196 26.3946 55.7071 26.2071C55.8946 26.0196 56 25.7652 56 25.5C56 25.2348 55.8946 24.9804 55.7071 24.7929C55.5196 24.6054 55.2652 24.5 55 24.5H9V14.5C9 14.2348 8.89464 13.9804 8.70711 13.7929C8.51957 13.6054 8.26522 13.5 8 13.5H4C3.73478 13.5 3.48043 13.6054 3.29289 13.7929C3.10536 13.9804 3 14.2348 3 14.5V55.5C3 55.7652 3.10536 56.0196 3.29289 56.2071C3.48043 56.3946 3.73478 56.5 4 56.5H60C60.2652 56.5 60.5196 56.3946 60.7071 56.2071C60.8946 56.0196 61 55.7652 61 55.5V51.5C61 51.2348 60.8946 50.9804 60.7071 50.7929C60.5196 50.6054 60.2652 50.5 60 50.5Z" fill="url(#paint4_linear)"/>
<path d="M60 50.5H9V26.5H15.62V42.5C15.62 44.0913 16.2521 45.6174 17.3774 46.7426C18.5026 47.8679 20.0287 48.5 21.62 48.5H21.88C23.4713 48.5 24.9974 47.8679 26.1226 46.7426C27.2479 45.6174 27.88 44.0913 27.88 42.5V26.5H37.62V42.5C37.62 44.0913 38.2521 45.6174 39.3774 46.7426C40.5026 47.8679 42.0287 48.5 43.62 48.5H43.88C45.4713 48.5 46.9974 47.8679 48.1226 46.7426C49.2479 45.6174 49.88 44.0913 49.88 42.5V26.5H55C55.2652 26.5 55.5196 26.3946 55.7071 26.2071C55.8946 26.0196 56 25.7652 56 25.5C56 25.2348 55.8946 24.9804 55.7071 24.7929C55.5196 24.6054 55.2652 24.5 55 24.5H49.88V9.5H51C51.2652 9.5 51.5196 9.39464 51.7071 9.20711C51.8946 9.01957 52 8.76522 52 8.5C52 8.23478 51.8946 7.98043 51.7071 7.79289C51.5196 7.60536 51.2652 7.5 51 7.5H36.5C36.2348 7.5 35.9804 7.60536 35.7929 7.79289C35.6054 7.98043 35.5 8.23478 35.5 8.5C35.5 8.76522 35.6054 9.01957 35.7929 9.20711C35.9804 9.39464 36.2348 9.5 36.5 9.5H37.62V24.5H27.88V9.5H29C29.2652 9.5 29.5196 9.39464 29.7071 9.20711C29.8946 9.01957 30 8.76522 30 8.5C30 8.23478 29.8946 7.98043 29.7071 7.79289C29.5196 7.60536 29.2652 7.5 29 7.5H14.5C14.2348 7.5 13.9804 7.60536 13.7929 7.79289C13.6054 7.98043 13.5 8.23478 13.5 8.5C13.5 8.76522 13.6054 9.01957 13.7929 9.20711C13.9804 9.39464 14.2348 9.5 14.5 9.5H15.62V24.5H9V14.5C9 14.2348 8.89464 13.9804 8.70711 13.7929C8.51957 13.6054 8.26522 13.5 8 13.5H4C3.73478 13.5 3.48043 13.6054 3.29289 13.7929C3.10536 13.9804 3 14.2348 3 14.5V55.5C3 55.7652 3.10536 56.0196 3.29289 56.2071C3.48043 56.3946 3.73478 56.5 4 56.5H60C60.2652 56.5 60.5196 56.3946 60.7071 56.2071C60.8946 56.0196 61 55.7652 61 55.5V51.5C61 51.2348 60.8946 50.9804 60.7071 50.7929C60.5196 50.6054 60.2652 50.5 60 50.5ZM47.88 42.5C47.88 43.5609 47.4586 44.5783 46.7084 45.3284C45.9583 46.0786 44.9409 46.5 43.88 46.5H43.62C42.5591 46.5 41.5417 46.0786 40.7916 45.3284C40.0414 44.5783 39.62 43.5609 39.62 42.5V26.5H47.88V42.5ZM47.88 9.5V15.07C46.73 14.91 45.73 14.72 44.69 14.52C43.0108 14.1753 41.3153 13.9149 39.61 13.74V9.5H47.88ZM39.62 15.75C41.46 15.94 42.86 16.2 44.32 16.48C45.42 16.69 46.55 16.9 47.88 17.08V24.5H39.62V15.75ZM25.88 42.5C25.88 43.5609 25.4586 44.5783 24.7084 45.3284C23.9583 46.0786 22.9409 46.5 21.88 46.5H21.62C20.5591 46.5 19.5417 46.0786 18.7916 45.3284C18.0414 44.5783 17.62 43.5609 17.62 42.5V26.5H25.88V42.5ZM25.88 9.5V15.07C24.73 14.91 23.73 14.72 22.69 14.52C21.0108 14.1753 19.3153 13.9149 17.61 13.74V9.5H25.88ZM17.62 15.75C19.46 15.94 20.86 16.2 22.32 16.48C23.42 16.69 24.55 16.9 25.88 17.08V24.5H17.62V15.75ZM59 54.5H5V15.5H7V51.5C7 51.7652 7.10536 52.0196 7.29289 52.2071C7.48043 52.3946 7.73478 52.5 8 52.5H59V54.5Z" fill="black"/>
<defs>
<linearGradient id="paint0_linear" x1="15.62" y1="31.08" x2="27.88" y2="31.08" gradientUnits="userSpaceOnUse">
<stop stop-color="#2FFFFF"/>
<stop offset="0.27" stop-color="#2AE7FF"/>
<stop offset="0.82" stop-color="#1EAAFF"/>
<stop offset="1" stop-color="#1A95FF"/>
</linearGradient>
<linearGradient id="paint1_linear" x1="499.051" y1="1095.17" x2="649.395" y2="1095.17" gradientUnits="userSpaceOnUse">
<stop stop-color="#2FFFFF"/>
<stop offset="0.27" stop-color="#2AE7FF"/>
<stop offset="0.82" stop-color="#1EAAFF"/>
<stop offset="1" stop-color="#1A95FF"/>
</linearGradient>
<linearGradient id="paint2_linear" x1="13.5" y1="28" x2="30" y2="28" gradientUnits="userSpaceOnUse">
<stop stop-color="#C6C6C6"/>
<stop offset="0.42" stop-color="#AEAEAE"/>
<stop offset="1" stop-color="#878787"/>
</linearGradient>
<linearGradient id="paint3_linear" x1="621.25" y1="7.5" x2="893.5" y2="7.5" gradientUnits="userSpaceOnUse">
<stop stop-color="#C6C6C6"/>
<stop offset="0.42" stop-color="#AEAEAE"/>
<stop offset="1" stop-color="#878787"/>
</linearGradient>
<linearGradient id="paint4_linear" x1="3" y1="35" x2="61" y2="35" gradientUnits="userSpaceOnUse">
<stop stop-color="#C1B194"/>
<stop offset="0.42" stop-color="#A99C87"/>
<stop offset="1" stop-color="#827B71"/>
</linearGradient>
</defs>
</svg>
